<svg id="Capa_1" data-name="Capa 1" xmlns="http://www.w3.org/2000/svg" viewBox="0 0 100 100"><path d="M15,49.52a13.83,13.83,0,0,1,1.36-1.92c4.49-4.51,9-9,13.52-13.48a2.79,2.79,0,0,1,2.65-.91,2.59,2.59,0,0,1,2.06,1.87,2.63,2.63,0,0,1-.67,2.71c-1.18,1.2-2.38,2.38-3.57,3.57l-5.42,5.39c-.15.15-.3.32-.55.59h57.4a2.78,2.78,0,0,1,3,1.92,2.73,2.73,0,0,1-2.4,3.53c-.27,0-.55,0-.82,0H24.38l.55.58,8.9,8.86a2.68,2.68,0,0,1,.76,2.81,2.58,2.58,0,0,1-2.06,1.88,2.73,2.73,0,0,1-2.6-.87l-10.06-10c-1.17-1.17-2.38-2.32-3.51-3.53A16.57,16.57,0,0,1,15,50.61Z"/></svg>