<svg id="Capa_1" data-name="Capa 1" xmlns="http://www.w3.org/2000/svg" viewBox="0 0 100 100"><path d="M25,82.5c-.18-.06-.35-.13-.53-.18a4.67,4.67,0,0,1-3.4-4.47q0-10.26,0-20.53a1.28,1.28,0,1,1,2.53,0v20c0,1.84.78,2.62,2.63,2.62H66.83c1.85,0,2.63-.78,2.63-2.61q0-5.53,0-11.09v-.72l-.6,0H64.05c-1.26,0-1.68-.41-1.68-1.66V36.3c0-1.31.39-1.7,1.7-1.7h5.36c0-.24,0-.45,0-.65q0-5.67,0-11.34A2.19,2.19,0,0,0,67,20.15H26.06a2.2,2.2,0,0,0-2.48,2.5v23.7c0,.21,0,.42,0,.63a1.26,1.26,0,0,1-2.51,0,4.34,4.34,0,0,1,0-.51V22.69a4.71,4.71,0,0,1,5.05-5.07H67a4.7,4.7,0,0,1,5,5v12h5.57c1.07,0,1.53.46,1.53,1.55V64c0,1.09-.46,1.54-1.54,1.55H72V77.28c0,2.81-1.15,4.35-3.83,5.14,0,0-.07,0-.1.08ZM76.52,63V51.33H68.87c-1.15,0-1.76-.44-1.77-1.26s.61-1.28,1.74-1.28h7.69V37.18H65V63Z"/><path d="M38.63,74.89V56.66c-.91,0-1.79,0-2.67,0a1.29,1.29,0,0,1-1.48-1.47V44.54c0-4,2.21-6.54,6.16-7.15.5-.08,1-.1,1.3-.63,0,0,0-.11,0-.13-2.67-1.9-3.15-4.59-2.51-7.55a6,6,0,0,1,6.48-4.6,6.16,6.16,0,0,1,5.49,6,6.67,6.67,0,0,1-2.09,5.66l-.8.66a4,4,0,0,0,.86.49c.54.16,1.12.21,1.67.35a6.53,6.53,0,0,1,5,6.23c.05,3.8,0,7.6,0,11.4a1.26,1.26,0,0,1-1.41,1.41c-.89,0-1.78,0-2.72,0V74.89h2.64c.92,0,1.5.51,1.48,1.28a1.29,1.29,0,0,1-1.45,1.25q-11.34,0-22.69,0a1.3,1.3,0,0,1-1.45-1.25c0-.77.57-1.27,1.48-1.28ZM53.5,54.1v-.64c0-3.23,0-6.46,0-9.69a4,4,0,0,0-3.18-3.72c-.47-.11-.95-.17-1.43-.27a2.92,2.92,0,0,1-2.15-1.31,1.54,1.54,0,0,0-1.79-.84c-.1,0-.22,0-.31,0s-.29.1-.34.2a4.11,4.11,0,0,1-3.46,2.12A4.1,4.1,0,0,0,37,44.3v9.8h1.65v-.72c0-2.36,0-4.73,0-7.09a1.27,1.27,0,1,1,2.53,0c0,.42,0,.85,0,1.27V52h8.11V46.5c0-1,.46-1.51,1.24-1.52s1.29.55,1.3,1.53V54.1ZM44,74.88v-14a4.38,4.38,0,0,1,0-.63,1.26,1.26,0,0,1,2.49,0,3.29,3.29,0,0,1,0,.63v14h2.75V54.66h-8V74.88ZM41.71,31v.51a3.56,3.56,0,0,0,3.21,3.55,3.52,3.52,0,0,0,3.82-3,7.56,7.56,0,0,0,0-2,3.53,3.53,0,0,0-4.38-3.07C42.66,27.54,41.71,28.93,41.71,31Z"/><path d="M22.34,53a1.28,1.28,0,0,1-1.29-1.27,1.3,1.3,0,0,1,1.24-1.26,1.28,1.28,0,0,1,1.29,1.27A1.3,1.3,0,0,1,22.34,53Z"/><path d="M58.16,76.15a1.24,1.24,0,0,1,1.25-1.25,1.28,1.28,0,0,1,1.27,1.24,1.29,1.29,0,0,1-1.3,1.28A1.26,1.26,0,0,1,58.16,76.15Z"/><path d="M70.71,47.09h-3c-1.41,0-1.95-1-1.26-2.15q1.51-2.64,3-5.26a1.29,1.29,0,0,1,2.42,0Q73.49,42.31,75,45c.65,1.14.12,2.07-1.19,2.12h-3.1Zm-1-2.6H71.8l-1.07-1.84Z"/><path d="M70.78,53h3c1.28,0,1.83.94,1.21,2q-1.55,2.71-3.13,5.42a1.27,1.27,0,0,1-2.35,0c-1-1.78-2.08-3.57-3.1-5.36-.65-1.13-.09-2.06,1.23-2.07Zm1,2.6h-2.1l1.06,1.81Z"/></svg>