<svg id="Capa_1" data-name="Capa 1" xmlns="http://www.w3.org/2000/svg" viewBox="0 0 100 100"><defs><style>.cls-1{fill:#fff;}</style></defs><path d="M18.9,74.27a3.33,3.33,0,0,1-1.2-3.14,3.17,3.17,0,0,1,2.53-2.6c1.8-.38,3.62-.74,5.44-1a3.21,3.21,0,0,1,3.78,3.16v.5l3.34-.62-1.2-6.37L27.36,65a1.08,1.08,0,0,1-1.28-.83,1.06,1.06,0,0,1,.83-1.27l.39-.1L36.86,61l.53-.11c.76-.12,1.29.19,1.41.81a1.09,1.09,0,0,1-1,1.32c-1,.2-1.95.37-2.92.56l-1.15.23,1.19,6.3a5.66,5.66,0,0,0,.6,0c2.85-.54,5.71-1.08,8.56-1.64a1.09,1.09,0,0,0,.62-.44,6.48,6.48,0,0,1,8.94-1.69,1.29,1.29,0,0,0,.8.15c.64-.08,1.27-.23,2-.36L55.58,64q-1.5-3.77-3-7.53c-.36-.9-.58-1.05-1.56-1.05H48.93v7c0,1.11-.33,1.62-1.06,1.63s-1.1-.51-1.1-1.6V34.83H46q-13.33,0-26.66,0c-.2,0-.44.07-.6,0a2.69,2.69,0,0,1-1-.7c-.29-.41-.07-.87.29-1.21l2.32-2.17,13.5-12.6c.91-.85,1.29-.85,2.18,0L51.32,32.47c.2.19.48.35.57.58A1.71,1.71,0,0,1,52,34.16a1.33,1.33,0,0,1-.91.64,15.13,15.13,0,0,1-2.14,0V48.91h5.1a3.3,3.3,0,0,1,3.38,2.3c.63,1.56,1.25,3.13,1.88,4.7.09.23.19.45.3.7l9.52-1.8c.84-.16,1.41.11,1.55.76s-.25,1.17-1.08,1.34l-4,.78,1.2,6.37,3.26-.61a11.34,11.34,0,0,1-.31-1.65,3.08,3.08,0,0,1,2.38-3.13c1.87-.41,3.75-.78,5.64-1.08a3.22,3.22,0,0,1,3.46,4.6,11.09,11.09,0,0,1,1.06,2.55,3.1,3.1,0,0,1-2.66,3.5c-2.43.47-4.87.92-7.3,1.38l-6.57,1.24-.4.13c.39,1,.77,2,1.16,3,.9,2.2.6,2,3,2a8.42,8.42,0,0,1,1.88.13,3.18,3.18,0,0,1,2.39,3.4,3.23,3.23,0,0,1-3,2.94c-1.94.05-3.88.06-5.82,0a3.13,3.13,0,0,1-2.89-2.2c-1-2.49-2-5-3-7.46-.07-.19-.15-.37-.25-.6l-2.33.45v.73c0,2.57,0,5.14,0,7.72,0,1-.37,1.38-1.38,1.39H44.91c-1,0-1.38-.37-1.39-1.39v-6L40,75.77,22.37,79.11a3.09,3.09,0,0,1-3.23-1.19,3.13,3.13,0,0,1-.35-3.38A2.49,2.49,0,0,0,18.9,74.27Zm2.53-41.66H48.3L34.86,20.08ZM45.7,80.26h8.64c0-3,.06-6,0-9a4.31,4.31,0,0,0-8.59,0C45.63,74.27,45.7,77.25,45.7,80.26Zm10.76-9.82,1.44-.28,21.24-4c.79-.15,1.17-.64,1-1.29s-.68-1-1.46-.81L60.41,67.48l-4.71.91Zm-12.94.26-4.26.81L21.74,74.85c-.83.16-1.22.67-1.08,1.33s.68.92,1.48.77L39.8,73.61l3.72-.71ZM49,53.24h1.83c2.16,0,3.06.61,3.86,2.59l3.21,8c.74,1.85.74,1.85,2.69,1.41a.61.61,0,0,0,.1-.07.25.25,0,0,0,0-.07Q58,58.45,55.35,51.77a1.14,1.14,0,0,0-1.2-.7H49ZM61.13,71.77a.84.84,0,0,0,0,.19l3,7.64a1.1,1.1,0,0,0,1.12.71h5.2a1.08,1.08,0,1,0,0-2.16c-.63,0-1.26,0-1.89,0a3.41,3.41,0,0,1-3.71-2.51l-1.71-4.28Zm3.56-7.35c-.2-1.07-.4-2.1-.59-3.14s-.41-2.1-.61-3.19l-3,.59c.66,1.63,1.27,3.18,1.89,4.72S63,65,64.69,64.42Zm8.55-1.56c1.69-.34,3.58-.68,5.44-1.09a1,1,0,0,0-.39-2c-.56.05-1.11.17-1.67.27-1.24.23-2.48.46-3.71.71a1.09,1.09,0,0,0-1,1.18C72,62.46,72.45,62.86,73.24,62.86ZM26.07,69.61l-1.46.28c-1.29.24-2.57.47-3.85.73a1.07,1.07,0,0,0-.92,1.28,1.08,1.08,0,0,0,1.27.84c.27,0,.54-.09.8-.14l4.38-.83a1.1,1.1,0,0,0,1-1.24A1.11,1.11,0,0,0,26.07,69.61Z"/><path d="M43.52,47.82a8.66,8.66,0,1,1-8.72-8.65A8.67,8.67,0,0,1,43.52,47.82Zm-2.17,0a6.49,6.49,0,1,0-6.52,6.46A6.5,6.5,0,0,0,41.35,47.86Z"/><path d="M20.79,52.16V38.63a3.84,3.84,0,0,1,0-.68,1.07,1.07,0,0,1,2.12,0,3.75,3.75,0,0,1,0,.67V65.89c0,.92-.39,1.42-1.08,1.42s-1.08-.5-1.08-1.41Z"/><path d="M70.61,24a5.41,5.41,0,1,1-5.44,5.33A5.42,5.42,0,0,1,70.61,24Zm3.22,5.43a3.25,3.25,0,1,0-3.23,3.22A3.25,3.25,0,0,0,73.83,29.44Z"/><path d="M79.33,21.53c0,.89-2,2.92-2.64,2.82a1.06,1.06,0,0,1-.81-1.67,9.41,9.41,0,0,1,1.75-1.76,1.3,1.3,0,0,1,1.11-.08C79,21,79.21,21.37,79.33,21.53Z"/><path d="M69.51,19.66c0-.36,0-.72,0-1.08a1.07,1.07,0,0,1,1.09-1.06,1,1,0,0,1,1.05,1,22.06,22.06,0,0,1,0,2.3,1.06,1.06,0,0,1-1.08,1,1.1,1.1,0,0,1-1.06-1v-.13c0-.34,0-.68,0-1Z"/><path d="M60.89,30.5c-.36,0-.72,0-1.08,0a1.09,1.09,0,0,1-1.13-1.1,1.06,1.06,0,0,1,1.1-1c.7,0,1.4,0,2.09,0a1.08,1.08,0,1,1,0,2.16C61.57,30.52,61.23,30.5,60.89,30.5Z"/><path d="M80.35,28.35c.38,0,.77,0,1.15,0a1,1,0,0,1,1,1.09,1,1,0,0,1-1,1,18.58,18.58,0,0,1-2.36,0,1.07,1.07,0,0,1,0-2.14c.38,0,.77,0,1.15,0Z"/><path d="M71.66,39.14c0,.39,0,.77,0,1.15a1.08,1.08,0,0,1-2.15,0c0-.74,0-1.49,0-2.23a1,1,0,0,1,1-1,1.07,1.07,0,0,1,1.1,1.05C71.68,38.42,71.66,38.78,71.66,39.14Z"/><path d="M62.78,38.22c-.23-.17-.65-.34-.77-.63a1.3,1.3,0,0,1,.07-1.11,12.65,12.65,0,0,1,1.74-1.77.87.87,0,0,1,1.28,0c.24.3.46,1,.3,1.17a21.27,21.27,0,0,1-2.1,2.15C63.22,38.16,63.05,38.15,62.78,38.22Z"/><path d="M64.67,24.35c-.9,0-2.86-1.9-2.77-2.58a1.33,1.33,0,0,1,.56-.9,1.27,1.27,0,0,1,1.11.08,9.49,9.49,0,0,1,1.71,1.7,1.4,1.4,0,0,1,.08,1.12C65.24,24.06,64.82,24.23,64.67,24.35Z"/><path d="M78.43,38.13c-.89,0-2.83-1.89-2.76-2.55a1.31,1.31,0,0,1,.54-.91,1.4,1.4,0,0,1,1.17.08A8.7,8.7,0,0,1,79,36.41a1.43,1.43,0,0,1,.08,1.17C79,37.86,78.58,38,78.43,38.13Z"/><path class="cls-1" d="M64.69,64.42C63,65,63,65,62.34,63.4s-1.23-3.09-1.89-4.72l3-.59c.2,1.09.41,2.14.61,3.19S64.49,63.35,64.69,64.42Z"/><path d="M52.72,71.64A2.71,2.71,0,1,1,50,68.94,2.71,2.71,0,0,1,52.72,71.64Zm-1.94,0c-.34-.26-.55-.55-.72-.52a.84.84,0,0,0-.54.5c0,.12.28.49.46.5S50.41,71.91,50.78,71.67Z"/></svg>