<svg id="Capa_1" data-name="Capa 1" xmlns="http://www.w3.org/2000/svg" viewBox="0 0 100 100"><path d="M13.36,54.64c.21-.8.73-1,1.54-1,2.1.05,4.19,0,6.37,0,0-.29,0-.54,0-.79,0-2.19,0-4.38,0-6.57,0-1.4.28-1.69,1.65-1.69H33.48V23.69c0-1.33.18-1.51,1.54-1.51H57.38a2,2,0,0,0,1.34-.47c5-4.13,10.71-5.24,16.79-3a15.92,15.92,0,0,1,10.8,13.34c1,6.81-1.57,12.32-7.16,16.35a1.52,1.52,0,0,0-.74,1.44q0,15.51,0,31c0,1.49-.2,1.69-1.69,1.69q-30.89,0-61.79,0c-.83,0-1.37-.23-1.58-1.07ZM35.59,24.27V80.46H58.65c0-.23,0-.41,0-.6q0-16,0-31.93a1.27,1.27,0,0,0-.36-.85,17.55,17.55,0,0,1-4.62-6.95c-.06-.18-.2-.42-.35-.46a1.14,1.14,0,0,1-.86-1.37c.09-1.64,0-3.28.26-4.94a18.9,18.9,0,0,1,3.2-8.66,3.45,3.45,0,0,0,.22-.43ZM60.81,80.46H76.33V50a17.24,17.24,0,0,1-7.86,1.34A17.91,17.91,0,0,1,60.81,49Zm8.81-60.78a14.83,14.83,0,1,0,14.84,14.8A14.86,14.86,0,0,0,69.62,19.68ZM15.53,60.73H33.44v-14H23.37v.8c0,2.31,0,4.62,0,6.93,0,1-.31,1.28-1.28,1.28H15.53ZM33.44,76H15.56v4.49H33.44Zm-17.9-2.2H33.43V69.41H15.54Zm17.9-10.87H15.55v4.34H33.44Z"/><path d="M41.49,58.52c0,.64,0,1.29,0,1.93a1.07,1.07,0,0,1-1.07,1.18,1.06,1.06,0,0,1-1-1.15q0-2,0-3.93a1.07,1.07,0,0,1,1-1.15,1.08,1.08,0,0,1,1.06,1.19C41.51,57.23,41.49,57.88,41.49,58.52Z"/><path d="M41.49,69.48c0,.65,0,1.29,0,1.93s-.45,1.21-1.05,1.2-1-.47-1-1.21c0-1.26,0-2.53,0-3.79,0-.75.41-1.21,1-1.23s1.06.47,1.08,1.25C41.5,68.25,41.49,68.87,41.49,69.48Z"/><path d="M39.4,47.53c0-.64,0-1.29,0-1.93a1.05,1.05,0,1,1,2.09,0q0,2,0,3.93a1,1,0,1,1-2.09,0C39.37,48.86,39.4,48.2,39.4,47.53Z"/><path d="M41.49,36.57c0,.64,0,1.29,0,1.93s-.45,1.17-1.08,1.15a1,1,0,0,1-1-1.15c0-1.31,0-2.61,0-3.92a1,1,0,0,1,1-1.12,1,1,0,0,1,1.05,1.11C41.51,35.24,41.49,35.91,41.49,36.57Z"/><path d="M45.94,36.55c0-.67,0-1.34,0-2a1,1,0,0,1,1-1.09A1,1,0,0,1,48,34.53c0,1.36,0,2.71,0,4.07a1,1,0,0,1-1,1,1,1,0,0,1-1-1.11C45.93,37.88,45.94,37.21,45.94,36.55Z"/><path d="M45.94,47.54c0-.67,0-1.34,0-2A1,1,0,0,1,47,44.43a1,1,0,0,1,1,1.07c0,1.36,0,2.71,0,4.07a1,1,0,0,1-1.07,1.07,1,1,0,0,1-1-1.11C45.93,48.87,45.94,48.2,45.94,47.54Z"/><path d="M54.53,47.54c0,.67,0,1.33,0,2a1,1,0,0,1-1.05,1.1,1,1,0,0,1-1-1.07c0-1.36,0-2.71,0-4.07a1,1,0,0,1,1-1.06,1,1,0,0,1,1,1.1C54.54,46.21,54.53,46.87,54.53,47.54Z"/><path d="M54.53,58.5c0,.67,0,1.34,0,2a1.05,1.05,0,0,1-1,1.13,1,1,0,0,1-1-1.14c0-1.33,0-2.66,0-4a1,1,0,0,1,1-1.09,1,1,0,0,1,1.06,1.11C54.54,57.17,54.53,57.84,54.53,58.5Z"/><path d="M54.53,69.52c0,.67,0,1.33,0,2a1,1,0,1,1-2.05,0c0-1.34,0-2.67,0-4a1,1,0,0,1,1-1.13,1.06,1.06,0,0,1,1,1.14C54.54,68.19,54.53,68.85,54.53,69.52Z"/><path d="M48,58.51c0,.66,0,1.33,0,2a1,1,0,0,1-1,1.12,1.06,1.06,0,0,1-1-1.14q0-2,0-3.93A1,1,0,1,1,48,56.51C48,57.17,48,57.84,48,58.51Z"/><path d="M45.94,69.44c0-.64,0-1.29,0-1.93a1.05,1.05,0,0,1,1-1.13,1,1,0,0,1,1,1.07c0,1.35,0,2.71,0,4.07a1,1,0,0,1-1.06,1.09,1.06,1.06,0,0,1-1-1.17C45.93,70.77,45.94,70.1,45.94,69.44Z"/><path d="M65.13,68c-.57,0-1.14,0-1.7,0a1.08,1.08,0,0,1-1.15-1.1,1.06,1.06,0,0,1,1.17-1c1.11,0,2.23,0,3.34,0,.74,0,1.18.42,1.18,1a1.05,1.05,0,0,1-1.13,1C66.27,68.06,65.7,68,65.13,68Z"/><path d="M72.47,68c-.57,0-1.14,0-1.71,0a1,1,0,1,1,0-2.09c1.12,0,2.23,0,3.35,0A1.06,1.06,0,0,1,75.33,67a1.08,1.08,0,0,1-1.15,1C73.61,68.06,73,68,72.47,68Z"/><path d="M65.11,61.5H63.4a1.07,1.07,0,0,1-1.13-1,1,1,0,0,1,1.06-1c1.21,0,2.43,0,3.63,0a1,1,0,0,1,1,1.06,1,1,0,0,1-1.07,1C66.29,61.52,65.7,61.5,65.11,61.5Z"/><path d="M72.45,61.5H70.74a1,1,0,0,1-1.1-1,1,1,0,0,1,1-1.09c1.18,0,2.37,0,3.56,0a1,1,0,0,1,1.08,1.08,1.07,1.07,0,0,1-1.17,1H72.45Z"/><path d="M65.16,52.91c.59,0,1.18,0,1.77,0a1,1,0,1,1,0,2c-1.19,0-2.38,0-3.56,0a1,1,0,0,1-1.08-1,1,1,0,0,1,1.1-1.05c.59,0,1.18,0,1.78,0Z"/><path d="M65.19,72.35c.57,0,1.14,0,1.71,0a1,1,0,0,1,1.06,1,1,1,0,0,1-1,1c-1.21,0-2.42,0-3.63,0a1,1,0,0,1-1-1,1,1,0,0,1,1.07-1h1.85Z"/><path d="M72.45,52.91c.59,0,1.19,0,1.78,0A1,1,0,0,1,75.33,54a1,1,0,0,1-1.08,1c-1.19,0-2.37,0-3.56,0a1,1,0,1,1,0-2c.59,0,1.19,0,1.78,0Z"/><path d="M72.46,74.4c-.59,0-1.18,0-1.77,0a1,1,0,0,1-1-1,1,1,0,0,1,1-1q1.81,0,3.63,0a1,1,0,0,1,1,1,1,1,0,0,1-1,1.06c-.61,0-1.23,0-1.85,0Z"/><path d="M69.67,26.48h8.78c1.09,0,1.48.37,1.48,1.44V41.14c0,1-.39,1.35-1.34,1.35H60.67c-.85,0-1.23-.35-1.23-1.21q0-6.8,0-13.57c0-.88.39-1.23,1.3-1.23C63.72,26.47,66.69,26.48,69.67,26.48Zm-8.13,9.61c1.34-.61,2.65-1.17,3.92-1.79a1.43,1.43,0,0,1,1.65.15c1.09.81,2.22,1.57,3.3,2.38a.77.77,0,0,0,1,.07c2-1.06,4-2.08,6-3.13.18-.09.42-.27.42-.42,0-1.58,0-3.17,0-4.76H61.54Zm10,4.28,0-.13c-1.73-1.25-3.46-2.5-5.21-3.73a.79.79,0,0,0-.64,0c-1.28.55-2.56,1.14-3.83,1.74a.66.66,0,0,0-.37.42c0,.56,0,1.13,0,1.73Zm1.25-1.89c1.52,1.2,2.88,2.52,5,1.81V35.91Z"/><path d="M74.18,32.42a2.88,2.88,0,1,1-2.85-2.88A2.89,2.89,0,0,1,74.18,32.42Zm-2,.16v-.33c-.3-.2-.57-.53-.88-.59a.64.64,0,0,0-.77.76c.06.3.46.72.72.73S71.9,32.79,72.21,32.58Z"/></svg>