<svg id="Capa_1" data-name="Capa 1" xmlns="http://www.w3.org/2000/svg" viewBox="0 0 100 100"><path d="M55.33,82.5a9.45,9.45,0,0,1-3.51-1.38,7.84,7.84,0,0,1-3.48-6.5c0-.19,0-.38,0-.57a.43.43,0,0,0,0-.15H47.19l-1,2.31A3.45,3.45,0,0,1,43.66,82c-5.95,0-11.89.07-17.84,0a8.68,8.68,0,0,1-.95-17.24l.47-.09a3.64,3.64,0,0,1,.92-3.07,3.45,3.45,0,0,1-.41-4.29c.94-1.52,2.46-1.72,4.15-1.55v-1q0-15.42,0-30.85a6.06,6.06,0,0,1,2.92-5.55,5.39,5.39,0,0,1,2.89-.85q11.24,0,22.47,0a5.77,5.77,0,0,1,4.26,2l5.53,5.85a6.11,6.11,0,0,1,1.73,4.37v9h.9a40.14,40.14,0,0,1,5.5.26,7.72,7.72,0,0,1,6.2,7.18c0,.27,0,.55,0,.82q0,13.65,0,27.3a8,8,0,0,1-5.76,7.9l-1.15.31ZM32.05,55.7h.87c3.56,0,7.11,0,10.66,0A3.37,3.37,0,0,1,47,58.6a3.58,3.58,0,0,1-.91,3A3,3,0,0,1,47,64a16.34,16.34,0,0,1-.78,2.59c1.14,1.47,1.13,2.82-.14,4.66.54,1,1.44.4,2.25.57V71q0-12,0-24a9.54,9.54,0,0,1,.22-2.14,7.93,7.93,0,0,1,7.92-6.14c3.49,0,7,0,10.47,0h.72V28.56H60.54c-1,0-1.31-.32-1.32-1.33V19.54h-.79c-7.32,0-14.64,0-22,0A4.21,4.21,0,0,0,32,24c.07,10.3,0,20.6,0,30.9Zm48.45,5c0-4.57,0-9.14,0-13.71a6,6,0,0,0-6.32-6.29H56.54A6,6,0,0,0,50.25,47q0,13.68,0,27.35a7.59,7.59,0,0,0,.06,1.07,6,6,0,0,0,6.16,5.19c5.84,0,11.68-.07,17.52,0a6.25,6.25,0,0,0,6.53-6.5C80.42,69.63,80.5,65.14,80.5,60.66ZM29.73,80.08A6.79,6.79,0,1,0,23,73.28,6.77,6.77,0,0,0,29.73,80.08Zm6.44-22.35H29c-1,0-1.61.55-1.6,1.4A1.43,1.43,0,0,0,29,60.54h14.4A1.45,1.45,0,0,0,45,59.15c0-.85-.64-1.41-1.66-1.41Zm0,4.84h-7.3a1.42,1.42,0,0,0-1.56,1.32c0,.47.08.75.66.73a11.08,11.08,0,0,1,5.22.71.85.85,0,0,0,.32,0h10A1.37,1.37,0,0,0,45,64.1a1.42,1.42,0,0,0-1.55-1.52Zm-.62,17.34s0,0,0,0c2.64,0,5.28,0,7.92,0a1.4,1.4,0,1,0,0-2.8c-1.86,0-3.72,0-5.57,0a.72.72,0,0,0-.49.19C36.82,78.18,36.21,79.05,35.59,79.91Zm.72-12.49c.52.89,1,1.72,1.47,2.52a.76.76,0,0,0,.54.28q2.57,0,5.13,0A1.4,1.4,0,0,0,45,68.83a1.45,1.45,0,0,0-1.55-1.41c-.87,0-1.73,0-2.6,0Zm2,7.62a2,2,0,0,0,.23,0h4.82A1.44,1.44,0,0,0,45,73.68c0-.82-.62-1.39-1.61-1.4-1.35,0-2.7,0-4.06,0h-.86Zm28-48.54-5-5.32V26.5Zm-46.7,48c.07,1.5.36,1.73,1.79,1.52l-.32-1.52Zm-.09-2c1.53.22,1.83,0,1.68-1.41C19.71,70.93,19.84,70.72,19.56,72.43Zm4-5.21-.12-.17L20.91,69c.89.22,1.38.1,1.71-.58A6.94,6.94,0,0,1,23.51,67.22Zm-.1,12.3.1-.13a7.19,7.19,0,0,1-.73-.92c-.31-.56-.74-.62-1.49-.42Z"/><path d="M42.75,52.72c0,.26,0,.5,0,.72a.87.87,0,0,1-.91.87.81.81,0,0,1-.88-.88c0-.59-.25-.75-.75-.91a6.36,6.36,0,0,1-1.48-.83,1.35,1.35,0,0,1-.44-.6.9.9,0,0,1,.35-1.17c.4-.28.72-.09,1,.22a2.61,2.61,0,0,0,2.5.92c.89-.11,1.41-.49,1.54-1.18a2,2,0,0,0-.7-2.22A9.7,9.7,0,0,0,41.52,47c-.42-.2-.87-.35-1.28-.55a3.18,3.18,0,0,1,.26-5.84c.17-.06.28-.33.38-.52s0-.21,0-.32a1,1,0,0,1,.93-1,.94.94,0,0,1,.9,1c0,.19,0,.38,0,.61a11.27,11.27,0,0,1,1.11.27,4,4,0,0,1,1,.48A.77.77,0,0,1,45,42.19a.8.8,0,0,1-1,.32A9.42,9.42,0,0,0,41.78,42a1.38,1.38,0,0,0-1.55,1.12,1.47,1.47,0,0,0,1,1.75c.65.3,1.34.52,2,.82A3.83,3.83,0,0,1,45,51.07,3.31,3.31,0,0,1,42.75,52.72Z"/><path d="M53.36,35.33H61a4.05,4.05,0,0,1,.7,0,.88.88,0,0,1,.76,1,.87.87,0,0,1-.75.89,3.33,3.33,0,0,1-.63,0H45.19a1,1,0,0,1-1-.94,1,1,0,0,1,1-1c1.33,0,2.66,0,4,0Z"/><path d="M46.8,30.58c2.73,0,5.45,0,8.18,0a1.45,1.45,0,0,1,1,.33,1.08,1.08,0,0,1,.18.91c-.1.26-.44.46-.72.62s-.37,0-.56,0H38.68a3.2,3.2,0,0,1-.44,0,.95.95,0,0,1,0-1.89c.56,0,1.14,0,1.71,0Z"/><path d="M39.79,37.25c-.47,0-.93,0-1.4,0a1,1,0,0,1-1.07-.93,1,1,0,0,1,1-1c1,0,1.95,0,2.92,0a.92.92,0,0,1,1,.93c0,.57-.36.93-1,1H39.79Z"/><path d="M60.24,32.48c-.4,0-.81,0-1.21,0a.93.93,0,0,1-.9-1A.89.89,0,0,1,59,30.6a22.55,22.55,0,0,1,2.6,0,.85.85,0,0,1,.83.94.87.87,0,0,1-.86.92c-.44,0-.89,0-1.33,0Z"/><path d="M65.39,42.84c2.87,0,5.75,0,8.63,0,2.33,0,3.59,1.28,3.6,3.62,0,1,0,1.95,0,2.92a3.24,3.24,0,0,1-3.46,3.39H64.32c-.25,0-.59,0-.73-.12S63,52,63.06,51.7s.43-.59.73-.8.45,0,.68,0h9.46c1.36,0,1.77-.42,1.77-1.79,0-1,0-1.91,0-2.86a1.28,1.28,0,0,0-1.45-1.45H56.53c-1,0-1.46.48-1.47,1.49s0,2.11,0,3.17a1.3,1.3,0,0,0,1.42,1.43c1,0,2.07,0,3.11,0,.75,0,1.18.35,1.19.93s-.44,1-1.16,1c-1.08,0-2.16,0-3.24,0a3.19,3.19,0,0,1-3.23-3.29c0-1,0-2.11,0-3.17a3.19,3.19,0,0,1,3.48-3.47C59.55,42.83,62.47,42.84,65.39,42.84Z"/><path d="M77.71,70.6c0,1.63,0,3.26,0,4.89a2.75,2.75,0,0,1-2.94,2.93c-.53,0-1.06,0-1.59,0a2.74,2.74,0,0,1-2.74-2.76q0-5.07,0-10.15A2.42,2.42,0,0,1,72.69,63a16.25,16.25,0,0,1,2.79,0,2.39,2.39,0,0,1,2.22,2.43c0,1.71,0,3.42,0,5.13Zm-1.92,0c0-1.63,0-3.25,0-4.88,0-.6-.25-.84-.84-.83s-1.27,0-1.9,0a.63.63,0,0,0-.71.7c0,3.31,0,6.63,0,10,0,.61.32.9,1,.93h1.33c.88,0,1.14-.26,1.14-1.13C75.8,73.8,75.79,72.22,75.79,70.63Z"/><path d="M69,66.63c0,.55,0,1.11,0,1.65a2,2,0,0,1-2,2c-1.1,0-2.2,0-3.3,0a2,2,0,0,1-2-2c0-1.1,0-2.2,0-3.3a1.94,1.94,0,0,1,1.91-2,32.51,32.51,0,0,1,3.42,0A2,2,0,0,1,69,65.11C69,65.62,69,66.13,69,66.63ZM63.7,65v3.4c1.06,0,2.09,0,3.12,0A.48.48,0,0,0,67.1,68c0-1,0-2,0-3.07Z"/><path d="M65.35,78.42c-.53,0-1.06,0-1.58,0a2,2,0,0,1-2-2c0-1.11,0-2.24,0-3.35a1.92,1.92,0,0,1,2-2c1.09-.05,2.19-.05,3.29,0a2,2,0,0,1,2,2.09c0,1,0,2.07,0,3.1a2,2,0,0,1-2.09,2.08C66.4,78.43,65.88,78.42,65.35,78.42ZM63.7,76.51c1.07,0,2.06,0,3,0a.46.46,0,0,0,.34-.32c0-1,0-2,0-3.06H63.7Z"/><path d="M60.41,74.79c0,.53,0,1.06,0,1.59a2,2,0,0,1-1.93,2c-1.13,0-2.28,0-3.41,0a2,2,0,0,1-1.91-2c0-1.09,0-2.19,0-3.29a1.91,1.91,0,0,1,1.89-2,33.66,33.66,0,0,1,3.48,0,1.94,1.94,0,0,1,1.89,2C60.42,73.7,60.41,74.24,60.41,74.79Zm-1.91-1.7H55.1v3.42c1,0,2.06,0,3.07,0a.56.56,0,0,0,.31-.42C58.51,75.1,58.5,74.13,58.5,73.09Z"/><path d="M53.15,66.63c0-.57,0-1.14,0-1.71a1.84,1.84,0,0,1,1.66-1.86,31.88,31.88,0,0,1,3.91,0A1.86,1.86,0,0,1,60.4,65c0,1.1,0,2.19,0,3.29a2,2,0,0,1-1.95,2q-1.68.06-3.36,0a2,2,0,0,1-2-2c0-.54,0-1.09,0-1.64Zm5.32,1.71V65H55.11v3.37Z"/><path d="M65.29,61.71c-.57,0-1.14,0-1.71,0A1.86,1.86,0,0,1,61.78,60c-.06-1.24-.06-2.49,0-3.74a1.9,1.9,0,0,1,1.9-1.77c1.12,0,2.25,0,3.37,0a2,2,0,0,1,2,1.93c0,1.12,0,2.25,0,3.37a2,2,0,0,1-1.94,2c-.59,0-1.18,0-1.78,0Zm-1.6-2h3.38V56.4H63.69Z"/><path d="M77.7,58.12c0,.59,0,1.18,0,1.77a1.89,1.89,0,0,1-1.8,1.81c-1.2,0-2.41,0-3.61,0a1.92,1.92,0,0,1-1.83-1.92c0-1.12,0-2.25,0-3.37a2,2,0,0,1,1.94-1.95q1.68,0,3.36,0a2,2,0,0,1,2,1.94c0,.57,0,1.14,0,1.72Zm-1.93-1.7H72.39v3.34h3.38Z"/><path d="M60.41,58.12c0,.55,0,1.1,0,1.65a1.94,1.94,0,0,1-1.89,1.93c-1.16,0-2.33,0-3.49,0a1.9,1.9,0,0,1-1.87-1.93q0-1.68,0-3.36a2,2,0,0,1,1.94-1.95q1.68,0,3.36,0a2,2,0,0,1,1.95,2C60.42,57,60.41,57.57,60.41,58.12ZM58.47,56.4H55.11v3.35h3.36Z"/><path d="M32.2,70.36a1,1,0,0,1-1.3.92,3.36,3.36,0,0,0-1-.24c-.22,0-.44.23-.66.35.15.19.25.44.44.56a8.81,8.81,0,0,0,1,.45,2.47,2.47,0,0,1,1.66,2.2A2.5,2.5,0,0,1,31,77.24a.73.73,0,0,0-.3.42,1,1,0,0,1-.92.74,1,1,0,0,1-1-.68,1.8,1.8,0,0,0-.46-.5,6.44,6.44,0,0,1-1.07-.93.86.86,0,0,1,.24-1.24.84.84,0,0,1,1.19.1,1.76,1.76,0,0,0,.87.44,1,1,0,0,0,.81-.39.67.67,0,0,0-.35-1c-.44-.21-.9-.37-1.34-.58a2.25,2.25,0,0,1-1.28-2.88,2,2,0,0,1,.5-.86A3.35,3.35,0,0,0,29,68.63c.25-.67,1.34-.56,1.6.15a.9.9,0,0,0,.69.61A1.17,1.17,0,0,1,32.2,70.36Z"/></svg>