<svg id="Capa_1" data-name="Capa 1" xmlns="http://www.w3.org/2000/svg" viewBox="0 0 100 100"><path d="M68.83,76.19h6.24V74.05a9.51,9.51,0,0,1-1.25-.6A6.46,6.46,0,0,1,71,67a6.33,6.33,0,0,1,1.69-3.82,4.58,4.58,0,0,1,6.93,0,7.11,7.11,0,0,1,0,9.42,5.34,5.34,0,0,1-1.11.9,11.28,11.28,0,0,1-1.26.6v2.17h2.39c.56,0,1.13,0,1.7,0a1,1,0,0,1,1.11,1.1c0,1.35,0,2.7,0,4.05a1,1,0,0,1-1.1,1.12H19.2c-1.42,0-1.66-.25-1.66-1.68V77.68c0-1.15.31-1.45,1.49-1.46h.61v-57c0-1.39.25-1.64,1.62-1.64H50.43c1.39,0,1.65.25,1.65,1.62V44.82H67.32c1.2,0,1.51.3,1.51,1.51V76.19Zm-47-56.46V76.19H30.1v-9c0-1.06.34-1.4,1.42-1.4H41.57V63.66H38.91c-1.16,0-1.48-.31-1.48-1.46V52.59c0-1.19.3-1.49,1.52-1.49h2.63V49H38.8c-1,0-1.37-.35-1.37-1.38V37.82c0-1,.34-1.37,1.37-1.37h7.71c1,0,1.38.34,1.38,1.37,0,2.09,0,4.18,0,6.27v.68H50v-25ZM66.7,47h-23V76.18H51V74.32a4.19,4.19,0,1,1,8.38,0v1.87H66.7Zm13.61,31.4H19.67v2H80.31ZM41.58,76.19v-8.3H32.24v8.3Zm4.17-31.37V38.57H39.56v8.3h2v-.62c0-1.11.33-1.43,1.44-1.43ZM79.3,67.88a4.81,4.81,0,0,0-1.25-3.36,2.52,2.52,0,0,0-3.77,0,5.08,5.08,0,0,0,0,6.68,2.52,2.52,0,0,0,3.81,0A4.77,4.77,0,0,0,79.3,67.88ZM41.57,61.54V53.25h-2v8.29ZM57.31,76.19v-.64c0-.52,0-1,0-1.57A2.09,2.09,0,0,0,55.35,72a2,2,0,0,0-2.18,1.74,21.45,21.45,0,0,0,0,2.41Z"/><path d="M69.89,17.5A12.72,12.72,0,0,1,82.42,29,12.59,12.59,0,0,1,71.87,42.57,12.23,12.23,0,0,1,63.57,41a.88.88,0,0,0-.9,0c-1.21.54-2.44,1-3.66,1.58A1.1,1.1,0,0,1,57.5,41c.52-1.2,1-2.41,1.56-3.6a1,1,0,0,0-.06-1,12.55,12.55,0,0,1,7.93-18.47C67.9,17.71,68.9,17.64,69.89,17.5ZM60.36,39.68c.85-.36,1.53-.61,2.17-.93a1.47,1.47,0,0,1,1.58.13,10.45,10.45,0,1,0-3-3,1.59,1.59,0,0,1,.14,1.76C60.94,38.23,60.7,38.88,60.36,39.68Z"/><path d="M35.33,28.07c0,1.66,0,3.32,0,5,0,.93-.37,1.3-1.31,1.3H26.18c-.94,0-1.31-.37-1.31-1.31V23.1c0-.94.37-1.3,1.31-1.3q3.91,0,7.85,0c.93,0,1.3.36,1.3,1.3C35.34,24.76,35.33,26.42,35.33,28.07ZM27,23.92v8.29h6.2V23.92Z"/><path d="M37.43,28c0-1.64,0-3.27,0-4.91,0-.94.37-1.3,1.31-1.3,2.61,0,5.23,0,7.84,0,.94,0,1.31.36,1.31,1.3q0,5,0,9.94c0,.94-.37,1.31-1.3,1.31H38.74c-.94,0-1.31-.37-1.31-1.3C37.42,31.37,37.43,29.69,37.43,28Zm2.12,4.2h6.2V23.92h-6.2Z"/><path d="M24.87,42.73c0-1.66,0-3.32,0-5,0-.94.37-1.31,1.31-1.31,2.61,0,5.23,0,7.84,0,.94,0,1.31.37,1.31,1.3,0,3.32,0,6.63,0,10,0,.94-.37,1.3-1.3,1.3H26.18c-.94,0-1.31-.36-1.31-1.3C24.86,46,24.87,44.38,24.87,42.73Zm8.32,4.15V38.59H27v8.29Z"/><path d="M35.33,57.37c0,1.66,0,3.32,0,5,0,.95-.36,1.32-1.3,1.32H26.18c-.94,0-1.31-.37-1.31-1.3V52.42c0-1,.36-1.32,1.3-1.32H34c.94,0,1.31.37,1.31,1.3C35.34,54.06,35.33,55.71,35.33,57.37Zm-2.12-4.13H27v8.29h6.2Z"/><path d="M50,49h2.94c.85,0,1.24.39,1.24,1.24,0,2,0,3.92,0,5.89,0,.85-.39,1.23-1.24,1.24H47c-.85,0-1.23-.39-1.24-1.25V50.25c0-.86.39-1.23,1.24-1.24Zm2.06,2.14H48v4.1h4.1Z"/><path d="M60.45,49H63.4c.85,0,1.23.38,1.24,1.24v5.89c0,.85-.39,1.23-1.25,1.24H57.51c-.86,0-1.24-.39-1.24-1.25q0-2.94,0-5.88c0-.86.38-1.23,1.24-1.24Zm-2.06,6.23h4.12v-4.1H58.39Z"/><path d="M45.8,63.66c0-1,0-2,0-2.94s.39-1.24,1.24-1.24h5.89c.85,0,1.24.38,1.24,1.23,0,2,0,3.93,0,5.89,0,.86-.39,1.24-1.24,1.24H47c-.85,0-1.23-.38-1.24-1.24S45.8,64.64,45.8,63.66ZM52,65.72v-4.1h-4.1v4.1Z"/><path d="M64.64,63.65c0,1,0,2,0,2.94s-.39,1.25-1.24,1.25H57.52c-.86,0-1.25-.38-1.25-1.23,0-2,0-3.93,0-5.89,0-.86.38-1.24,1.23-1.24h5.89c.86,0,1.24.38,1.25,1.23S64.64,62.67,64.64,63.65Zm-2.13-2H58.4v4.1h4.11Z"/><path d="M69.27,21.8c4.18,0,7,2.69,6.84,6.08a6.48,6.48,0,0,1-.84,2.77c-1.39,2.44-2.91,4.8-4.39,7.19-.59.95-1.44.94-2,0-1.4-2.25-2.77-4.53-4.18-6.78a5.59,5.59,0,0,1-.32-6.11A5.8,5.8,0,0,1,69.27,21.8Zm.59,13.7,1.07-1.71c.92-1.52,1.88-3,2.76-4.58A3.09,3.09,0,0,0,74,27.77c.07-2.53-2.41-4.33-5.17-3.78a3.71,3.71,0,0,0-2.79,5.27C67.23,31.35,68.55,33.35,69.86,35.5Z"/><path d="M73,28.09a3.14,3.14,0,1,1-3.1-3.15A3.15,3.15,0,0,1,73,28.09Zm-2.1,0a1,1,0,1,0-1,1A1.05,1.05,0,0,0,70.91,28.08Z"/></svg>