<svg id="Capa_1" data-name="Capa 1" xmlns="http://www.w3.org/2000/svg" viewBox="0 0 100 100"><path d="M17.5,80.85,25.26,71c1.61-2,3.25-4.05,4.83-6.11A2.14,2.14,0,0,1,32,64c3.25,0,6.51,0,9.76,0h.78c-.15-.27-.26-.46-.38-.65-3.16-5-6.37-9.91-9.48-14.91a20.1,20.1,0,0,1,2.29-24.12,19.36,19.36,0,0,1,17.25-6.53c8.06,1,13.74,5.41,16.68,13a19.31,19.31,0,0,1-1.77,17.9c-3,4.91-6.2,9.76-9.31,14.64l-.4.66.72,0c3.3,0,6.6,0,9.89,0a2,2,0,0,1,1.73.83q6,7.65,12.12,15.28c.82,1,.73,1.65-.34,2.4h-64Zm32.43-10c.13-.19.21-.28.28-.39,5-7.81,10.09-15.54,14.88-23.46,3.84-6.34,3.59-12.9-.49-19.05A17.71,17.71,0,0,0,34.83,47.13c3.58,5.75,7.26,11.43,10.9,17.15Zm17.65,9.06c-1.43-1.8-2.79-3.51-4.17-5.21a.9.9,0,0,0-.61-.2q-12.87,0-25.73,0a1,1,0,0,0-.72.36c-.81,1-1.59,2-2.38,3l-1.65,2.08ZM39.64,66.62c-.1-.05-.14-.08-.17-.08-2.37,0-4.73,0-7.1,0a.89.89,0,0,0-.59.36c-.78.94-1.54,1.9-2.3,2.86L27.73,72H35.2a.62.62,0,0,0,.39-.26C36.94,70,38.27,68.35,39.64,66.62Zm20.53-.09c1.45,1.82,2.8,3.53,4.17,5.21A.89.89,0,0,0,65,72c2.2,0,4.39,0,6.59,0,.15,0,.31,0,.54,0-1.4-1.77-2.75-3.47-4.11-5.16a.59.59,0,0,0-.41-.23ZM21.39,80h.74a45.63,45.63,0,0,1,4.68,0,3.46,3.46,0,0,0,3.65-1.75,45.87,45.87,0,0,1,2.86-3.66,1.05,1.05,0,0,0-.24-.07c-2.34,0-4.68,0-7,0a.83.83,0,0,0-.56.3c-.63.74-1.22,1.51-1.82,2.27Zm45.12-5.45c1.44,1.81,2.77,3.5,4.13,5.17a1,1,0,0,0,.7.26q3.3,0,6.59,0c.15,0,.3,0,.49,0-.07-.11-.1-.17-.14-.22a43.8,43.8,0,0,1-2.8-3.59,3.28,3.28,0,0,0-3.4-1.62C70.28,74.62,68.47,74.52,66.51,74.52ZM38.67,72h8.91l-.24-.43-2.92-4.58a1.12,1.12,0,0,0-1.7-.1Q41.37,68.52,40,70.21Zm22.56,0c-1.43-1.81-2.79-3.54-4.18-5.25-.29-.37-1.28-.22-1.54.19L53.77,69.6,52.29,72Z"/><path d="M50,50.56A12.67,12.67,0,1,1,62.62,37.9,12.71,12.71,0,0,1,50,50.56ZM60.08,37.87A10.14,10.14,0,1,0,49.94,48,10.16,10.16,0,0,0,60.08,37.87Z"/><path d="M50,65a1.26,1.26,0,0,1-1.23-1.64A2.11,2.11,0,0,1,49,62.9c1.49-2.47,3-5,4.49-7.41a1.77,1.77,0,0,1,1.09-.72,1.18,1.18,0,0,1,1.24,1.62,3,3,0,0,1-.25.51q-2.17,3.6-4.34,7.21A1.49,1.49,0,0,1,50,65Z"/><path d="M58.81,51.82a1.26,1.26,0,1,1-1.27-1.24A1.3,1.3,0,0,1,58.81,51.82Z"/></svg>