<svg id="Capa_1" data-name="Capa 1" xmlns="http://www.w3.org/2000/svg" viewBox="0 0 100 100"><path d="M45.07,20c.12.09.25.18.36.28a1.13,1.13,0,0,1,.37,1.22,1.15,1.15,0,0,1-1,.83,3.85,3.85,0,0,1-.59,0H28.7c0,.21,0,.38,0,.55q0,11.49,0,23a1.3,1.3,0,0,0,.33.81L49.63,67.29l.32.3.43-.42Q60.63,56.93,70.89,46.68a1.4,1.4,0,0,0,.44-1.07q0-11.28,0-22.55v-.72H55.49c-1,0-1.62-.6-1.37-1.41.11-.36.52-.62.8-.93H72.85a1.6,1.6,0,0,1,.83,1.59c0,3.77,0,7.54,0,11.31a1.51,1.51,0,0,0,.5,1.17c1.77,1.74,3.51,3.5,5.27,5.25a1.84,1.84,0,0,1,.58,1.4q0,16.59,0,33.16a7.4,7.4,0,0,1-.17,1.63A5.85,5.85,0,0,1,73.93,80H41.29c-5.11,0-10.23,0-15.35,0a5.84,5.84,0,0,1-5.84-4.77A1.17,1.17,0,0,0,20,75V40c.26-.31.51-.64.79-.93,1.71-1.71,3.42-3.43,5.14-5.13a1.18,1.18,0,0,0,.4-1c0-3.8,0-7.61,0-11.42A1.59,1.59,0,0,1,27.15,20ZM24.32,77.44a19.27,19.27,0,0,0,1.95.2q23.73,0,47.45,0a4.19,4.19,0,0,0,.71,0c.38-.07.76-.18,1.07-.26L59.44,61.31a4.43,4.43,0,0,1-.34.46l-8,8c-.85.85-1.39.85-2.23,0-2.68-2.68-5.37-5.36-8-8a2.26,2.26,0,0,1-.3-.51Zm53.33-34L61.44,59.62l16,16a14.87,14.87,0,0,0,.21-1.8q0-14.94,0-29.87ZM38.47,59.72,22.34,43.59V60.76c0,4.4,0,8.79,0,13.18a13.08,13.08,0,0,0,.23,1.67ZM26.29,37.09,23,40.39l3.26,3.26Zm47.38-.2V43.7l3.39-3.39c0-.05-.13-.16-.23-.25Z"/><path d="M50.35,20c.14.12.3.23.44.36a1.16,1.16,0,1,1-1.58-.08,4,4,0,0,1,.43-.28Z"/><path d="M53.16,45.63a5.1,5.1,0,0,1-3.73,1.67,5.64,5.64,0,0,1-5.21-3.64A7.7,7.7,0,0,1,45.54,35a5.42,5.42,0,0,1,7-.67l.21.12a1.08,1.08,0,0,0,0-.19c.1-.83.57-1.3,1.25-1.26s1.1.55,1.1,1.39v9.08a5.61,5.61,0,0,0,0,.58,1.54,1.54,0,0,0,2,1.42,3.32,3.32,0,0,0,2.29-2.15c2.57-6-1.33-10.86-5.15-12.48a10,10,0,0,0-11,1.58A9.78,9.78,0,0,0,40,43c1.08,4.14,3.91,6.63,8.06,7.61a14.61,14.61,0,0,0,1.62.19,1.18,1.18,0,1,1-.18,2.33A12.75,12.75,0,1,1,62.47,37.46a11.08,11.08,0,0,1-1.22,7.59,5.12,5.12,0,0,1-4.37,2.84A3.6,3.6,0,0,1,53.41,46c0-.06-.07-.13-.11-.2Zm-.34-5.87a12.91,12.91,0,0,0-.43-1.84,3,3,0,0,0-2.51-2.19,3.26,3.26,0,0,0-3.13,1.46A5.62,5.62,0,0,0,47.23,44a2.79,2.79,0,0,0,4.35-.17A6.17,6.17,0,0,0,52.82,39.76Z"/></svg>