<svg id="Capa_1" data-name="Capa 1" xmlns="http://www.w3.org/2000/svg" viewBox="0 0 100 100"><defs><style>.cls-1{fill:#fff;}</style></defs><path d="M83.84,81.88a1.64,1.64,0,0,1-1.5.62H17.65a4.64,4.64,0,0,1-.53,0,1,1,0,0,1-1-1,1,1,0,0,1,1-1c1.6,0,3.21,0,4.82,0h.77v-5c0-2.5.86-3.73,3.24-4.56V39.23A31.63,31.63,0,0,1,22.43,38a10.78,10.78,0,0,1,3.2-20.44,10.59,10.59,0,0,1,1.12-.1c.81,0,1.29.36,1.29,1s-.45,1-1.23,1a8.71,8.71,0,0,0-5.49,2.12,8.81,8.81,0,1,0,10.29-.85,2.45,2.45,0,0,1-.62-.48.92.92,0,0,1,0-1.21,1,1,0,0,1,1.31-.18,10.6,10.6,0,0,1,4.42,4.69A10.81,10.81,0,0,1,28.44,39l-.36,0V70.92a13.34,13.34,0,0,1,1.6.83,3.91,3.91,0,0,1,1.62,3.38c0,1.6,0,3.21,0,4.82,0,.43.13.58.57.57,1.17,0,2.33,0,3.51,0,0-2.15,0-4.25,0-6.36a.88.88,0,0,0-.21-.46,4.27,4.27,0,0,1-.81-2.6V63a12.52,12.52,0,0,1,1.06-4.67c.07-.18.13-.36.23-.61H34a2.45,2.45,0,0,1-2.4-2.41c-.18-2.67,1-3.41,3.17-3.25.27,0,.53,0,.8,0,1.8,0,2.49.5,3.1,2.38a18.93,18.93,0,0,0,1.21-1.89C40.62,51,41.31,49.4,42,47.82a5,5,0,0,1,3.1-3,.63.63,0,0,0,.35-.43c.14-1,.38-1.29,1-1.29s.92.36,1,1.34c0,0,0,.08.07.16h19.7c.23-1.19.48-1.53,1.11-1.5s.85.36,1,1.54a5,5,0,0,1,4.16,3.47c.55,1.39,1.18,2.75,1.83,4.09.36.74.85,1.41,1.35,2.23.61-2,1.29-2.45,3.18-2.45H81c1.74,0,2.2.32,2.83,2v1.59c-.59,2.15-2.28,2.25-4,2.1a22,22,0,0,1,1,4.18c.18,3.18.14,6.37.09,9.56a7.73,7.73,0,0,1-.66,2.1,2.11,2.11,0,0,0-.19.67c0,2.09,0,4.17,0,6.33.72,0,1.47,0,2.21,0a1.69,1.69,0,0,1,1.51.58ZM57.72,46.67c-3.59,0-7.18,0-10.77,0a3,3,0,0,0-3.18,2.05c-.6,1.46-1.29,2.89-1.94,4.34a8.31,8.31,0,0,1-2.38,3.21,8.66,8.66,0,0,0-3.12,6.92c-.06,2.57,0,5.15,0,7.73a2.19,2.19,0,0,0,2.49,2.47c2.4,0,4.8,0,7.2,0a4,4,0,0,0,2.32-.58,4.24,4.24,0,0,1,2.4-.58q6.93,0,13.87,0a4.83,4.83,0,0,1,2.47.59,3.47,3.47,0,0,0,1.52.53c2.69.05,5.38,0,8.06,0A2.18,2.18,0,0,0,79,71c0-2.67.08-5.34,0-8a8.5,8.5,0,0,0-3.11-6.73,8.4,8.4,0,0,1-2.39-3.2c-.65-1.47-1.34-2.92-2-4.4a3,3,0,0,0-3.07-2C64.9,46.69,61.31,46.67,57.72,46.67Zm14,28.68c-.91,0-1.73,0-2.53,0a4.54,4.54,0,0,1-2.9-.69,3.23,3.23,0,0,0-1.88-.46c-4.53,0-9.07,0-13.6,0a3.73,3.73,0,0,0-1.68.42,5.31,5.31,0,0,1-3,.7c-.78,0-1.56,0-2.4,0v5.11h28ZM29.27,80.47c0-2,.07-4,0-5.9-.06-1.12-1.12-1.72-2.46-1.64a2,2,0,0,0-2,2c0,.84,0,1.67,0,2.51v3Zm44.45-5.13c0,1.57,0,3,0,4.5,0,.48.37.66.82.67h2.7a.78.78,0,0,0,.88-.9V75.34Zm-36.36-.07c0,1.54,0,3,0,4.48a.7.7,0,0,0,.75.75c1,0,1.94,0,2.9,0,.43,0,.75-.23.75-.67,0-1.47,0-2.93,0-4.56H37.36ZM78.84,55.69c.85,0,1.66,0,2.47,0a.64.64,0,0,0,.46-.36c.32-.89,0-1.31-.9-1.31h-.59C78.73,54,78.73,54,78.84,55.69Zm-42.27,0c0-.36,0-.63,0-.89,0-.6-.22-.84-.81-.8-.38,0-.75,0-1.12,0-1.09,0-1.27.2-1,1.25a.67.67,0,0,0,.46.42C34.88,55.72,35.69,55.69,36.57,55.69Z"/><path class="cls-1" d="M83.84,81.08a1.69,1.69,0,0,0-1.51-.58c-.74,0-1.49,0-2.21,0,0-2.16,0-4.24,0-6.33a2.11,2.11,0,0,1,.19-.67,7.73,7.73,0,0,0,.66-2.1c0-3.19.09-6.38-.09-9.56a22,22,0,0,0-1-4.18c1.7.15,3.39,0,4-2.1Z"/><path d="M24.62,28.71c0-1.47,0-2.95,0-4.42,0-.53.19-.69.69-.68,1.17,0,2.33,0,3.5,0a2.34,2.34,0,0,1,2.62,2.54,14.52,14.52,0,0,1,0,2,2.21,2.21,0,0,1-2.29,2.17c-.66,0-1.32,0-2,0-.38,0-.51.14-.5.5,0,.82,0,1.63,0,2.44,0,.43-.15.6-.57.59-1.78,0-1.42.08-1.44-1.37C24.6,31.22,24.62,30,24.62,28.71Zm2-1.74v.66c0,.94,0,.94,1,.94,1.81,0,1.81,0,1.8-2,0-1.1-.12-1.22-1.2-1.23C26.63,25.37,26.63,25.37,26.63,27Z"/><path class="cls-1" d="M71.73,75.35v5.11h-28V75.35c.84,0,1.62,0,2.4,0a5.31,5.31,0,0,0,3-.7,3.73,3.73,0,0,1,1.68-.42c4.53,0,9.07,0,13.6,0a3.23,3.23,0,0,1,1.88.46,4.54,4.54,0,0,0,2.9.69C70,75.32,70.82,75.35,71.73,75.35Z"/><path d="M57.73,62.93h8.72c1.78,0,2.57,1.17,1.9,2.8-.33.79-.66,1.59-1,2.37A3,3,0,0,1,64.49,70Q57.72,70,51,70a2.94,2.94,0,0,1-2.79-1.79c-.42-.87-.83-1.75-1.21-2.64a1.79,1.79,0,0,1,1.73-2.63C51.69,62.91,54.71,62.93,57.73,62.93Zm-8.89,2c.44.93.8,1.8,1.26,2.61A1.19,1.19,0,0,0,51,68q6.73,0,13.48,0a1.25,1.25,0,0,0,.92-.48c.44-.8.75-1.67,1.13-2.56Z"/><path d="M57.93,58.15H43a4.33,4.33,0,0,1-.72,0,1,1,0,0,1,0-1.94c.22,0,.44,0,.66,0H73.11a5.78,5.78,0,0,1,.72,0,1,1,0,0,1,0,1.92,4.41,4.41,0,0,1-.73,0Z"/><path d="M41.28,63.2a3.22,3.22,0,1,1,0,6.43,3.22,3.22,0,0,1,0-6.43Zm0,2a1.2,1.2,0,0,0-1.2,1.22,1.22,1.22,0,0,0,1.26,1.24,1.24,1.24,0,0,0,1.21-1.23A1.23,1.23,0,0,0,41.28,65.19Z"/><path d="M70.47,66.45a3.18,3.18,0,0,1,3.19-3.25,3.22,3.22,0,0,1,.07,6.43A3.19,3.19,0,0,1,70.47,66.45Zm4.45-.07a1.24,1.24,0,1,0-1.18,1.26A1.22,1.22,0,0,0,74.92,66.38Z"/></svg>