<svg id="Capa_1" data-name="Capa 1" xmlns="http://www.w3.org/2000/svg" viewBox="0 0 100 100"><path d="M80,34.42V80H20.83A1.54,1.54,0,0,1,20,78.52q0-21.58,0-43.17a5.81,5.81,0,0,1,4.46-5.79A.68.68,0,0,0,25,29,5.73,5.73,0,0,1,29,25a.69.69,0,0,0,.56-.56A5.8,5.8,0,0,1,35.21,20q14.61,0,29.22,0a5.8,5.8,0,0,1,5.68,4.3.64.64,0,0,0,.56.54A5.74,5.74,0,0,1,75,29a.73.73,0,0,0,.6.59,5.76,5.76,0,0,1,4.33,4.59A1.45,1.45,0,0,0,80,34.42ZM77.65,77.63V35.57a3.54,3.54,0,0,0-3.86-3.85H26.22a3.54,3.54,0,0,0-3.86,3.85V77.63Zm-5-48.28a2.08,2.08,0,0,0-.15-.4A3.55,3.55,0,0,0,69.1,27H30.44a3.33,3.33,0,0,0-3,2.31Zm-4.86-4.69c-.06-.15-.08-.26-.13-.36a3.5,3.5,0,0,0-3.28-1.95H35a3.32,3.32,0,0,0-3,2.31Z"/><path d="M30.59,51.52a8.72,8.72,0,0,1-.73-7.28,7.68,7.68,0,0,1,6.9-5.37A7.73,7.73,0,0,1,44.37,45a8.87,8.87,0,0,1-.95,6.51l.51.24a8.86,8.86,0,0,1,5.25,7.42,22.92,22.92,0,0,1,.12,2.34c0,2.62,0,5.23,0,7.85A1.18,1.18,0,0,1,48,70.74H26a1.19,1.19,0,0,1-1.32-1.35c0-3-.05-5.94,0-8.91.08-3.31,1.22-6.14,4.12-8A9.09,9.09,0,0,1,29.7,52C30,51.81,30.25,51.68,30.59,51.52Zm-1.2,16.85v-.68c0-2,0-4,0-6,0-.86.44-1.39,1.15-1.4s1.19.53,1.19,1.42v6.62H42.27V61.67c0-.82.46-1.34,1.15-1.35s1.19.52,1.19,1.36c0,1.54,0,3.09,0,4.63v2H47c-.06-3,0-6.08-.23-9.09a6.3,6.3,0,0,0-4.57-5.66.89.89,0,0,0-.73.09,7.16,7.16,0,0,1-9,0,.86.86,0,0,0-.68-.09,6.34,6.34,0,0,0-4.42,4.66,13.53,13.53,0,0,0-.34,2.84c0,2.16,0,4.33,0,6.5v.77ZM42.3,46.63a13.08,13.08,0,0,0-.65-2.25,4.92,4.92,0,0,0-4.37-3.14,4.87,4.87,0,0,0-4.62,2.53,6.28,6.28,0,0,0,.52,7.32,4.85,4.85,0,0,0,7,.61A6.39,6.39,0,0,0,42.3,46.63Z"/><path d="M63.54,43.44H73.73a3.75,3.75,0,0,1,.58,0,1.16,1.16,0,0,1,0,2.3,3.84,3.84,0,0,1-.59,0h-21a1.17,1.17,0,0,1,0-2.33,4.51,4.51,0,0,1,.52,0Z"/><path d="M63.47,41.1c-2.69,0-5.38,0-8.07,0a1.59,1.59,0,0,1-1.08-.42,1.29,1.29,0,0,1-.22-1.1c.14-.33.58-.56.91-.78.13-.08.35,0,.52,0H71.86A1.16,1.16,0,0,1,73,39.9a1.13,1.13,0,0,1-1.12,1.18c-1,0-2,0-3,0Z"/><path d="M65.76,56.56c-2.67,0-5.34,0-8,0a1.63,1.63,0,0,1-1.08-.42,1.28,1.28,0,0,1-.22-1.1c.13-.33.57-.56.91-.78.12-.09.34,0,.52,0H73.78a2.81,2.81,0,0,1,.41,0,1.18,1.18,0,0,1,1.12,1.14,1.16,1.16,0,0,1-1.13,1.18c-.89,0-1.79,0-2.69,0Z"/><path d="M61.1,65.94H53.21a3.09,3.09,0,0,1-.53,0,1.16,1.16,0,0,1,0-2.31,4.69,4.69,0,0,1,.53,0H69.53a1.17,1.17,0,0,1,0,2.33c-.25,0-.51,0-.76,0Z"/><path d="M61.13,68.28c2.69,0,5.38,0,8.07,0a1.2,1.2,0,0,1,1.35,1.46,1,1,0,0,1-.93.85,3.11,3.11,0,0,1-.53,0H52.83a1.18,1.18,0,0,1-1.18-1.19,1.16,1.16,0,0,1,1.17-1.14c.82,0,1.64,0,2.46,0Z"/><path d="M56,61.25H53.22a1.21,1.21,0,0,1-1.34-1.16,1.19,1.19,0,0,1,1.31-1.18h5.55a1.18,1.18,0,1,1,0,2.34Z"/><path d="M71.27,58.91H74a1.19,1.19,0,0,1,1.29,1.14,1.2,1.2,0,0,1-1.3,1.2H68.4a1.18,1.18,0,1,1,0-2.34Z"/><path d="M63.6,58.91a1.17,1.17,0,1,1-1.17,1.14A1.18,1.18,0,0,1,63.6,58.91Z"/><path d="M74.12,63.6A1.17,1.17,0,1,1,73,64.75,1.19,1.19,0,0,1,74.12,63.6Z"/></svg>